<?xml version="1.0" encoding="UTF-8" standalone="no"?>
<svg xmlns="http://www.w3.org/2000/svg" width="64" height="64" viewBox="0 0 64 64">
  <circle cx="32" cy="32" r="30" fill="#4A56E2" />
  <circle cx="32" cy="32" r="24" fill="#3A46C2" />
  
  <!-- Brain symbol -->
  <path d="M32 14C25.4 14 20 19.4 20 26C20 30.5 22.5 34.4 26.2 36.4C26.1 36.9 26 37.4 26 38C26 41.3 28.7 44 32 44C35.3 44 38 41.3 38 38C38 37.4 37.9 36.9 37.8 36.4C41.5 34.4 44 30.5 44 26C44 19.4 38.6 14 32 14Z" fill="#FFFFFF" />
  
  <!-- Connections representing mental wellbeing -->
  <path d="M28 26C28 27.1 28.9 28 30 28C31.1 28 32 27.1 32 26C32 24.9 31.1 24 30 24C28.9 24 28 24.9 28 26Z" fill="#4A56E2" />
  <path d="M32 26C32 27.1 32.9 28 34 28C35.1 28 36 27.1 36 26C36 24.9 35.1 24 34 24C32.9 24 32 24.9 32 26Z" fill="#4A56E2" />
  <path d="M30 32C30 33.1 30.9 34 32 34C33.1 34 34 33.1 34 32C34 30.9 33.1 30 32 30C30.9 30 30 30.9 30 32Z" fill="#4A56E2" />
  
  <!-- Lines connecting the nodes -->
  <line x1="30" y1="28" x2="32" y2="30" stroke="#FFFFFF" stroke-width="1.5" />
  <line x1="34" y1="28" x2="32" y2="30" stroke="#FFFFFF" stroke-width="1.5" />
</svg>